<svg xmlns="http://www.w3.org/2000/svg" viewBox="0 0 512 512">
  <defs>
    <style>
      .a {
        fill: #1d1d1b;
        stroke: #1d1d1b;
        stroke-miterlimit: 10;
      }
    </style>
  </defs>
  <rect class="a" x="255" y="31" width="2" height="450"/>
  <circle class="a" cx="256" cy="54.4" r="5.3"/>
  <circle class="a" cx="256" cy="79.8" r="8.6"/>
  <path class="a" d="M266,29.9c-6.1-6.5-10-21.3-10-21.3s-3.9,14.8-10,21.3-22.4,7.9-22.4,7.9,3.1,2,6.7,3.8a19.1,19.1,0,0,0,17.7.2c6.6-3.3,7.7-3.2,8-3.2s1.4-.1,8,3.2a19.1,19.1,0,0,0,17.7-.2c3.6-1.8,6.7-3.8,6.7-3.8S272.9,37.5,266,29.9Z"/>
  <path class="a" d="M266,483.1c-6.1,6.6-10,21.3-10,21.3s-3.9-14.7-10-21.3-22.4-7.8-22.4-7.8,3.1-2,6.7-3.9a18.8,18.8,0,0,1,17.7-.1c6.6,3.2,7.7,3.1,8,3.1s1.4.1,8-3.1a18.8,18.8,0,0,1,17.7.1c3.6,1.9,6.7,3.9,6.7,3.9S272.9,475.5,266,483.1Z"/>
  <circle class="a" cx="256" cy="457.5" r="5.3"/>
  <circle class="a" cx="256" cy="432.1" r="8.6"/>
</svg>
