<svg xmlns="http://www.w3.org/2000/svg" viewBox="0 0 64.8 495.8">
  <defs>
    <style>
      .a {
        fill: #634e42;
      }
    </style>
  </defs>
  <g>
    <rect class="a" x="31.4" y="22.4" width="2" height="450"/>
    <circle class="a" cx="32.4" cy="45.8" r="5.3"/>
    <circle class="a" cx="32.4" cy="71.2" r="8.6"/>
    <path class="a" d="M42.3,21.3C36.3,14.8,32.4,0,32.4,0s-4,14.8-10,21.3S0,29.2,0,29.2s3.1,2,6.7,3.8a18.6,18.6,0,0,0,17.6.1c6.6-3.2,7.8-3.1,8.1-3.1s1.4-.1,8,3.1A18.8,18.8,0,0,0,58.1,33c3.6-1.8,6.7-3.8,6.7-3.8S49.3,28.9,42.3,21.3Z"/>
    <path class="a" d="M42.3,474.5c-6,6.6-9.9,21.3-9.9,21.3s-4-14.7-10-21.3S0,466.7,0,466.7s3.1-2,6.7-3.9a18.6,18.6,0,0,1,17.6-.1c6.6,3.2,7.8,3.1,8.1,3.1s1.4.1,8-3.1a18.8,18.8,0,0,1,17.7.1c3.6,1.9,6.7,3.9,6.7,3.9S49.3,466.9,42.3,474.5Z"/>
    <circle class="a" cx="32.4" cy="448.9" r="5.3"/>
    <circle class="a" cx="32.4" cy="423.5" r="8.6"/>
  </g>
</svg>
