<svg xmlns="http://www.w3.org/2000/svg" viewBox="0 0 84.9 512">
  <defs>
    <style>
      .a {
        fill: #1d1d1b;
        stroke: #1d1d1b;
        stroke-miterlimit: 10;
      }
    </style>
  </defs>
  <rect class="a" x="42.7" y="31" width="2" height="450"/>
  <circle class="a" cx="43.7" cy="54.4" r="5.3"/>
  <circle class="a" cx="43.7" cy="79.8" r="8.6"/>
  <path class="a" d="M53.7,29.9c-6-6.5-10-21.3-10-21.3s-3.9,14.8-9.9,21.3-22.4,7.9-22.4,7.9A69.1,69.1,0,0,0,18,41.6a19.1,19.1,0,0,0,17.7.2c6.6-3.3,7.8-3.2,8-3.2s1.5-.1,8.1,3.2a18.9,18.9,0,0,0,17.6-.2c3.6-1.8,6.7-3.8,6.7-3.8S60.6,37.5,53.7,29.9Z"/>
  <path class="a" d="M53.7,483.1c-6,6.6-10,21.3-10,21.3s-3.9-14.7-9.9-21.3-22.4-7.8-22.4-7.8,3-2,6.6-3.9a18.8,18.8,0,0,1,17.7-.1c6.6,3.2,7.8,3.1,8,3.1s1.5.1,8.1-3.1a18.6,18.6,0,0,1,17.6.1c3.6,1.9,6.7,3.9,6.7,3.9S60.6,475.5,53.7,483.1Z"/>
  <circle class="a" cx="43.7" cy="457.5" r="5.3"/>
  <circle class="a" cx="43.7" cy="432.1" r="8.6"/>
</svg>
