<svg xmlns="http://www.w3.org/2000/svg" viewBox="0 0 50 50">
  <defs>
    <style>
      .a {
        fill: #2f3e49;
      }

      .b {
        fill: #f96400;
      }
    </style>
  </defs>
  <title>extra_5</title>
  <g>
    <path class="a" d="M50,25A25,25,0,1,1,25,0,25,25,0,0,1,50,25"/>
    <path class="b" d="M34.7,37.6H15.3V11.5H34.7Zm-17.4-2H32.7V13.5H17.3Z"/>
    <path class="b" d="M25,21.7a3.2,3.2,0,1,1,3.1-3.2A3.1,3.1,0,0,1,25,21.7m0-4.3a1.1,1.1,0,0,0-1.1,1.1,1.1,1.1,0,1,0,2.2,0A1.1,1.1,0,0,0,25,17.4"/>
    <path class="b" d="M25,34.7a6.3,6.3,0,1,1,6.2-6.3A6.3,6.3,0,0,1,25,34.7m0-10.5a4.2,4.2,0,0,0-4.2,4.2,4.2,4.2,0,1,0,8.4,0A4.2,4.2,0,0,0,25,24.2"/>
  </g>
</svg>
