<svg xmlns="http://www.w3.org/2000/svg" viewBox="0 0 1183.6 691.9">
  <defs>
    <style>
      .ax {
        font-size: 24px;
      }

      .ax, .cx, .ex, .fx {
        fill: #f96400;
      }

      .ax, .ex, .fx {
        font-family: Montserrat-Black, Montserrat;
        font-weight: 800;
      }

      .bx {
        fill: none;
        stroke: #fff;
        stroke-miterlimit: 10;
        stroke-width: 4px;
      }

      .dx {
        fill: #ff5100;
      }

      .ex, .fx {
        font-size: 13px;
      }

      .ex {
        letter-spacing: 0.04em;
      }

      .fx {
        letter-spacing: 0.04em;
      }

      .gx {
        fill: #abdeeb;
        opacity: 0.2;
      }
    </style>
  </defs>
  <g>
    <g>
      <text class="ax" transform="translate(951.3 74.4) scale(0.96 1)">KEFLAVÍK</text>
      <text class="ax" transform="translate(951.3 115.1) scale(0.96 1)">HVERAGERÐI</text>
      <text class="ax" transform="translate(951.3 155.9) scale(0.96 1)">GEYSIR</text>
      <text class="ax" transform="translate(951.3 196.6) scale(0.96 1)">GULLFOSS</text>
      <text class="ax" transform="translate(951.3 237.3) scale(0.96 1)">SKÓGAFOSS</text>
      <text class="ax" transform="translate(951.3 359.6) scale(0.96 1)">SKAFTAFELL</text>
      <text class="ax" transform="translate(951.3 400.3) scale(0.96 1)">JÖKULSÁRLÓN</text>
      <text class="ax" transform="translate(951.3 441) scale(0.96 1)">HÖFN</text>
      <text class="ax" transform="translate(951.3 481.8) scale(0.96 1)">SEYÐISFJÖRÐUR</text>
      <text class="ax" transform="translate(951.3 563.2) scale(0.96 1)">MÝVATN</text>
      <text class="ax" transform="translate(951.3 604) scale(0.96 1)">AKUREYRI</text>
      <text class="ax" transform="translate(951.3 644.7) scale(0.96 1)">REYKJAVÍK</text>
      <text class="ax" transform="translate(951.3 685.5) scale(0.96 1)">KEFLAVÍK</text>
      <text class="ax" transform="translate(951.3 522.5) scale(0.96 1)">HVERIR</text>
      <text class="ax" transform="translate(951.3 278.1) scale(0.96 1)">VÍK Í MÝRDAL</text>
      <text class="ax" transform="translate(951.3 318.8) scale(0.96 1)">FJAÐRÁRGLJÚFUR</text>
    </g>
    <g>
      <line class="bx" x1="921.8" y1="66.6" x2="921.8" y2="680.9"/>
      <circle class="cx" cx="921.8" cy="66.9" r="7.5"/>
      <circle class="cx" cx="921.8" cy="107.6" r="7.5"/>
      <circle class="cx" cx="921.8" cy="148.4" r="7.5"/>
      <circle class="cx" cx="921.8" cy="189.1" r="7.5"/>
      <circle class="cx" cx="921.8" cy="229.8" r="7.5"/>
      <circle class="cx" cx="921.8" cy="270.6" r="7.5"/>
      <circle class="cx" cx="921.8" cy="311.3" r="7.5"/>
      <circle class="cx" cx="921.8" cy="352.1" r="7.5"/>
      <circle class="cx" cx="921.8" cy="392.8" r="7.5"/>
      <circle class="cx" cx="921.8" cy="433.5" r="7.5"/>
      <circle class="cx" cx="921.8" cy="474.3" r="7.5"/>
      <circle class="cx" cx="921.8" cy="515" r="7.5"/>
      <circle class="cx" cx="921.8" cy="555.7" r="7.5"/>
      <circle class="cx" cx="921.8" cy="596.5" r="7.5"/>
      <circle class="cx" cx="921.8" cy="637.2" r="7.5"/>
      <circle class="cx" cx="921.8" cy="678" r="7.5"/>
      <circle class="cx" cx="921.8" cy="555.7" r="7.5"/>
    </g>
    <g>
      <g>
        <g>
          <path class="bx" d="M691.9,419.4c0-1.2-.5-3.5.6-4.3s1.7-.4,2.1-.6l2.3-1c.6-.1.8-.3,1.6-.4s3,.3,4.2.1,3.5-2.7,4.8-3.9a22.2,22.2,0,0,0,3.2-4.2,7.6,7.6,0,0,0,1.6-2.9c.3-.9.1-1.5.4-2.5s2.2-3,3.1-4.6,1.2-3.5,2.2-4.6,6.6-1.9,9-1.5a22,22,0,0,0,4.4.5c1.1,0,2.8-.4,3.9.1s2.1,2.7,3.6,1.7.8-2.9.8-3.4a38.4,38.4,0,0,0,0-4.8c0-2.1.4-4.5-.4-6.5s-5.4-3.5-6.5-6.7c-.5-1.2-.5-4.3.4-5.2s2.6-.8,3.4-1.3a9.4,9.4,0,0,1,4.2-1.3,6.5,6.5,0,0,0,3.7-1.8l2.1-1.5c1.1-2.6-3.8-3.6-4.8-4.9,1.8-.4,3.5-1.3,5.4-1.4s3,.2,4.5,0c.8-1.9-1.5-4.4-2.3-5.9a23.8,23.8,0,0,0-1.8-3,18.4,18.4,0,0,1-1.4-1.4c-.5-1.3-.2-2.9-.7-4.3s-1.4-4.9-3.2-5.3a3.6,3.6,0,0,0-.2-1,16.2,16.2,0,0,0-2.2,0,7.9,7.9,0,0,1-3.4-2c-1.1-.9-1.3-2.4-2.4-3.4s-1.4-1-2.1-1.6-2.5-2.4-2.6-4.3c0-4.4,1.4-9.5,2-13.9s2.8-7.1,4.2-10.4c2.1-5.3.9-12,.9-17.7,0-.6-.3-2.2.1-2.7s2.4-1,3.1-3a49.2,49.2,0,0,0,1.4-5.5,26.4,26.4,0,0,0,1.2-4c0-.6-.1-1.2-.1-1.8s.2-.6.7-.7a7.2,7.2,0,0,1,1.1-1.9,12.7,12.7,0,0,1,2.8-2.3,6.7,6.7,0,0,1,4.5-1.4,16.1,16.1,0,0,0,3.1-.1c1.4-.3,2.3-1.4,3.8-1.2s1,.6,2.2,1.7a27.5,27.5,0,0,0,2.8,1.9c1,.5,2.5.7,3.3,1.4s.1,1.1.7,1.9,3.1,1.9,3.7.8-.6-3.6.6-5.1"/>
          <path class="bx" d="M493.8,183.6c-.8-.1-1-1.9-1.4-2.5s-1.6-2-2.3-3.1a9.7,9.7,0,0,0-2.5-2.8c-1-.8-2-1.6-3.3-1s-4.4,4.2-5.5,5.9-1.3,3.4-2.2,5a35.2,35.2,0,0,1-2.4,3.8,18.9,18.9,0,0,1-3.2,3.7c-1.1,1-2.4,1.5-3.4,3l-5.2,7.4c-1.1,1.5-.7,1.4-1.2,3.1-1,3.6-3.4,7.4-5,10.7a13.5,13.5,0,0,1-1.7,3.4,16.5,16.5,0,0,1-4.4,1.6c-2.3.4-5.1-.6-7.3,0s-4.1,3.5-5.7,5-7,1.4-10.3,1.4a7.7,7.7,0,0,1-4.7-.7c-1.5-1-2.6-2.7-4-3.9a4.4,4.4,0,0,1-2-3.4c-.3-2.2-1.3-6.1-3.5-7.1s-2.8-.4-4-.9a26.3,26.3,0,0,0-4.5-1.7c-2.2-.4-2.9.1-4.6,1.5s-3.7,1.5-6.2,2.2c-4.5,1.5-8.5.3-12.9-1.1-2.1-.6-3.6-2.1-5.6-2.9a19.6,19.6,0,0,1-3.2-1.7c-2.5-1.6-5.3-2.6-7.3-5.1a50.6,50.6,0,0,0-4.1-4.9c-2.2-1.8-4.6-3.3-6.7-5.2a10.7,10.7,0,0,1-1.6-1.4,2.7,2.7,0,0,0-.3-1.2,9.1,9.1,0,0,0-2.3-.1c-2.7-.1-5.2-.6-5.8,2.4s-2.6,7.5-4.1,11.1-2,3.8-2.3,6.1a17.2,17.2,0,0,1-1.6,5,7.5,7.5,0,0,1-2,2.9,78.2,78.2,0,0,1-7.1,7c-1.6,1.4-3.7,2.7-4.5,4.9a5.7,5.7,0,0,1-.8,2.5,8.6,8.6,0,0,0-1.8,2,3.3,3.3,0,0,0,0,1.4c-.8,1.3-1.7,2-2.1,3.7-.9,0-.8.7-1.5,1a5.6,5.6,0,0,1-1.8.7c-1.7.4-3.4.1-5.1.3s-1.9.6-2.9.7-1.2-.2-1.8.1-2.3,3.6-2.8,5-1.1,2.9-2.4,3.8-2.7.2-3.8,1.9-1.8,3-2.9,4.5a6.5,6.5,0,0,0-1.6,4c-.2,3.1.1,6.2.1,9.3-.1,4.9-2,9.5-2,14.2v5.3c0,1.8.6,3.3.6,5.2s-.2,3.9.2,5.8.8,3.1,1.1,4.6-.2,2.8-1.1,4.1a12.9,12.9,0,0,0-.9,1.6c-1.1,1.5-2.1,1.4-3.6,1.9-3.1,1.2-2.4,7-4.5,9.3s-3.4,1.6-5.1,1.6a10.4,10.4,0,0,0-4.3.6c-1.9.7-4.7.4-6.4,1.4s-3.3,4.1-4.6,6.1l-3,5a7.4,7.4,0,0,1-1.9,2.7c-.6.6-1.2.9-1.8,1.5-2.7,2.6-5.1,7.6-6.2,11.1-.3,1.2-.3,2.6-.9,3.5s-3.8,3.1-5.3,4.2-3.7,2.3-4.7,4.1-.3,2.6-.5,3.8-.8,1.8-1.1,3,0,3.3-.1,4.9-2.2,4.3-3.5,6.3-3.6,6.6-1.4,9.5,4.2,4.7,7.5,5c1,0,1.3-.3,2,.5a7.8,7.8,0,0,1,.8,2.3c.5,1.9.5,2.8-.7,4.1s-8.9,4.6-3.7,7.6c2.1,1.2,4.3,2,5.4,4.2s.8,4.2,1.4,6.1,1.6,4.4,4.6,4.5c1.4,0,4.1-.7,4.7.9s-.2,2.1-.5,2.9-2,2.2-4.3,2.7h0c-2,.4-3.4.3-4.9,1.9s-1.1,1.6-1.8,2.3-2.2,1.1-3.2,1.8-2.7,3.7-3.7,5.9a3.8,3.8,0,0,1-2.1,2.5,15.6,15.6,0,0,0-3.9,4.2c-2.2,2.7-5.7,4-8.7,5.2s-3.8,2.2-6,2.9-3.4,1.7-5.3,1.8-3.8-.3-5.6.1a19.2,19.2,0,0,1-4.1.5c-2.9,0-4.8-2.7-7.6-3.2a9.1,9.1,0,0,0-5.8,1.3s-16.5,4.1-23.5,3.2c-1.8-.2,4.4-.6,6,.1s4.5,5.2,5.5,7.7,1.2,2.2,1.2,4.3-.6,4.2-.6,6.4-.4,4.3,1.4,5.5,4.8,1.7,7,2a23,23,0,0,0,7.4.1c3.2-.8,6.3-2.8,9.7-3.2s5.5.2,8.2.1,3.8-.8,5.9-.7,5.4.6,8.1.7,5.8-.1,8.7-.1,7.6,1.9,10.4-.3,5.5-6.7,7.4-10.2c.8-1.4,1.2-2.7,2-4s1.5-1.7,2.2-2.7,1.5-1.5,3.6-2a20.9,20.9,0,0,1,2.1-1,11.5,11.5,0,0,1,1.9-.1c1.4-.3,2.3-.9,3.8-.7s5.2,2.5,6.9,4.6.9,2.1,2.6,1.9,4.3-5.9,5.8-7.8c4-5.1,9-9.1,14.1-13.1a36.3,36.3,0,0,0,9.6-11c2.5-4.9,4.7-10.1,7.8-14.7.8-1.2,1.3-2.8,2.2-3.7a3.7,3.7,0,0,1,1.2-.7c2.6-1.8,5.2-3.8,7.7-5.8s6.1-5.5,9.5-7a5.1,5.1,0,0,1,2.1-.8l3.8-.7c1.3-.2,3.2-1,4.4.2s.6,3.2.6,4.8.1,2.4-1.2,3.9a39,39,0,0,0-3.1,4c-1.6,2.5-1.5,6.2-3.3,8.7s-2.9,3.1-3.2,5.3-.1,3.4-.8,5.3-.2,2.9-.6,4.3a23.6,23.6,0,0,1-6.2,10.3c-5.3,5.1-10.8,10-17.3,13.3-2,1.1-2.2,1.1-3.2,3.1s-3.4,3.9-3.7,6.4,2.3,5.9,4.8,8.6,8.1,6.5,12.3,9.8a50.2,50.2,0,0,1,14.2,16.8c.8,1.6,1.6,5.4,3.4,6.4a1.1,1.1,0,0,1,1.6.4,34.5,34.5,0,0,0,2.8,5.4c4,6.4,9.3,12.4,15.8,16.3,3.5,2.1,8.3,2.7,12.3,2.7,1.8-.1,3.9.2,5.7,0s3.3-1.4,5.2-1.9,4.2.6,6.1,1.7,4.9,2.3,7.4,3.7c6.3,3.5,12.5,8.3,19.5,10.1,1.9.4,3.9,1.4,5.8,1.6a15.2,15.2,0,0,0,10.5-3.1c2.3-1.9,2.6-3.8,5.3-4.4a45.1,45.1,0,0,0,13.4-5c4-2.3,5.3-4.4,7.8-8.1a14.2,14.2,0,0,0,2.8-6.7c.3-1.6,1.1-3,1.3-4.6s-.3-3.7,0-5.5a11.6,11.6,0,0,1,3.1-5.5c3.2-3.9,8.4-5.9,10.7-10.4a13.1,13.1,0,0,1,4-5.5c3.7-2.6,6.7-6.4,10.8-8.4s7.5-2.9,11.1-4.6,9.1-4.1,12.4-7.1a27.8,27.8,0,0,0,3.6-4.1c1.8-2.3,2.4-2.4,5.3-2.4h9.9c2,.1,3.7.4,5.6-.5,3.6-1.7,7.2-4,10.7-5.9a25,25,0,0,0,9.7-9.9h0a6.5,6.5,0,0,1,4.4-3.5c2.4-.6,3.1,2.2,3.7,4.2s2,4.4,2.6,6.8a17.5,17.5,0,0,1,.6,3.3,33.4,33.4,0,0,0,1,4,17.1,17.1,0,0,0,8.1,10.5c1.1.6,2.3.5,3.4,1.1s1.5,1.2,2.8,1.4c6.2.9,8.9-4.1,11.8-8.3a6.1,6.1,0,0,1,3-2.5c1.9-.8,3.7-.9,5.6-1.9s4-2,6.7-2a18.9,18.9,0,0,0,4.1.1c3.6-.6,1.6-3.1,3-5.5,1.2.9,1.9,4.5,3.4,4.6a98.1,98.1,0,0,0,11-10.4c2.9-3.1,6.9-5.5,10.1-8.4,5.5-4.9,12.7-8.1,15.3-15.4,1.1-2.8,3-5,4.4-7.5s1.3-3.1,2.2-4.6a49.2,49.2,0,0,1,3.7-5.6c1.5-2.1,1.1-4.1,1.6-6.6a9,9,0,0,1,1.7-3c.6-.9,1-2.6,1.9-3.4s1.8-.5,3-.5c2.7,0,7.8-.4,9.5,2.1s1,4.3,1.4,6.2a41.3,41.3,0,0,1,1.1,8.6c0,1.9-.6,4.5.6,6"/>
          <path class="bx" d="M498.3,183V172.8c0-1.3-.4-3.3-.1-4.5s1.6-3,2.6-3.2,2.5,1.2,3.3,2.1a30.8,30.8,0,0,1,3.8,4.3,22.4,22.4,0,0,1,1.6,5c.8,2.5,3.1,3.1,5.2,4.3,4.1,2.3,8.4,2.1,12.6,4.1a7.9,7.9,0,0,0,4.8.7c2-.3,2.4-1.3,3.7-2.6s2.6-2.9,4.4-3.2a10.8,10.8,0,0,1,4,0c1.5.6,1.8,2.5,2.3,3.8a57.2,57.2,0,0,0,2.4,5.7c1.3,2.7,1.8,4.4,3.8,6.6s3.1,4.1,5.1,4.3c4.3.6,7-1.7,9.5-5.1.5-.8,1.5-3.3,2.3-3.7s2.5.5,3.3,1.1,2.1,2.3,3.7,2.6a8.7,8.7,0,0,0,5.5-.6c1.5-.9,1.9-2.3,3.4-3.2a4.8,4.8,0,0,1,3.9-.5,29.6,29.6,0,0,0,5.2.5h16.8c2.9.1,5.8,1.6,8.3,3.1s5,3.6,8.1,4.8c1.4.6,3.3,2.5,4.8,2.5.3,2.6,1,6.2,2.6,8.4a33.3,33.3,0,0,0,3.6,4c.6.6,1.9,1.3,2.2,2.1a13.1,13.1,0,0,1,0,2.8,49.6,49.6,0,0,1-.2,5.5c-.1,1-1.3,3.5-.4,4.4s2.9.1,3.2.1c3.9-.1,6.7-3.3,10.3-4.5s7.2-1.2,11.2-.6c1.1.2,2.2-.1,3.3.1s1.4.8,2,1a8,8,0,0,1,2.9,1.5c.8.6,1.2,1.6,1.9,2.3s1.7,1.1,2,1.6a5.9,5.9,0,0,1,.1,2.3,39.4,39.4,0,0,0,.5,6.9c.1,1.7-.2,3.3.6,4.9s2.8,2.6,4.6,4,1.3,2.4,3.1,2.2,1.2-1,2.7-1.4a20,20,0,0,0,4.9-.1,20.5,20.5,0,0,0,4.9-1.8c1.4-1,2.3-2.5,3.5-3.6a43.5,43.5,0,0,1,4.2-3.3c5.7-4.1,13.3-1.1,19-5a26.3,26.3,0,0,0,4.8-4.6c.9-.9,2.7-2.3,2.7-3.7,4.8-1.9,6.8,6.9,6.9,9.8a8.4,8.4,0,0,0,.5,3.9c.8,1.6,2.6,2.6,3.2,4.1s.3,3.8,1.4,5.6a9.4,9.4,0,0,0,1.4,1.9c1.4,1.7,3.9,3.5,6.2,3.3s2.7-.9,4.4-.6a6.2,6.2,0,0,1,2.9,1.8l3.9,3.3c1.6,1.5,3,3.9,5.1,4.8s4-1.6,5.1-3.9,2.1-3.7,2.2-5.4"/>
        </g>
        <g>
          <path class="dx" d="M166.4,462.5a6.4,6.4,0,1,1-6.4-6.4,6.4,6.4,0,0,1,6.4,6.4"/>
          <path class="dx" d="M263.9,462.5a6.4,6.4,0,1,1-6.4-6.4,6.4,6.4,0,0,1,6.4,6.4"/>
          <path class="dx" d="M317.2,420.6a6.4,6.4,0,1,1-6.4-6.4,6.4,6.4,0,0,1,6.4,6.4"/>
          <path class="dx" d="M344.8,407.8a6.4,6.4,0,1,1-6.4-6.4,6.4,6.4,0,0,1,6.4,6.4"/>
          <path class="dx" d="M384.3,537.9a6.4,6.4,0,1,1-6.4-6.3,6.4,6.4,0,0,1,6.4,6.3"/>
          <path class="dx" d="M419.6,557.9a6.3,6.3,0,0,1-6.3,6.3,6.4,6.4,0,1,1,6.3-6.3"/>
          <path class="dx" d="M477.9,500.2a6.4,6.4,0,1,1-6.4-6.4,6.4,6.4,0,0,1,6.4,6.4"/>
          <path class="dx" d="M563.8,451.8a6.4,6.4,0,1,1-6.4-6.3,6.3,6.3,0,0,1,6.4,6.3"/>
          <path class="dx" d="M618.2,467.3a6.4,6.4,0,1,1-6.4-6.3,6.4,6.4,0,0,1,6.4,6.3"/>
          <path class="dx" d="M690,424.5a6.4,6.4,0,0,1-6.4,6.4,6.4,6.4,0,1,1,6.4-6.4"/>
          <path class="dx" d="M779.5,258.2a6.4,6.4,0,0,1-6.4,6.3,6.4,6.4,0,0,1,0-12.7,6.4,6.4,0,0,1,6.4,6.4"/>
          <path class="dx" d="M592.5,191.3a6.4,6.4,0,0,1-6.3,6.4,6.4,6.4,0,0,1,0-12.8,6.4,6.4,0,0,1,6.3,6.4"/>
          <path class="dx" d="M567.1,206.6a6.4,6.4,0,1,1-6.4-6.4,6.4,6.4,0,0,1,6.4,6.4"/>
          <path class="dx" d="M501.3,184.7a6.4,6.4,0,1,1-6.4-6.4,6.4,6.4,0,0,1,6.4,6.4"/>
          <path class="dx" d="M248.6,435.2a6.4,6.4,0,0,1-6.4,6.4,6.4,6.4,0,1,1,6.4-6.4"/>
        </g>
      </g>
      <g>
        <text class="e" xtransform="translate(375.4 583.2) scale(0.96 1)">VÍK Í MÝRDAL</text>
        <text class="ex" transform="translate(353.2 525.3) scale(0.96 1)">SKÓGAFOSS</text>
        <text class="fx" transform="translate(334.7 393.1) scale(0.96 1)">GULLFOSS</text>
        <text class="fx" transform="translate(265.2 405.9) scale(0.96 1)">GEYSIR</text>
        <text class="fx" transform="translate(225.8 520.8) scale(0.96 1)">HVERAGERÐI</text>
        <text class="fx" transform="translate(92.9 486.8) scale(0.96 1)">KEFLAVÍK</text>
        <text class="fx" transform="translate(486.8 505.5) scale(0.96 1)">FJAÐRÁRGLJÚFUR</text>
        <text class="ex" transform="translate(510.9 439.2) scale(0.96 1)">SKAFTAFELL</text>
        <text class="ex" transform="translate(624.7 471.7) scale(0.96 1)">JÖKULSÁRLÓN</text>
        <text class="fx" transform="translate(697 430.3) scale(0.96 1)">HÖFN</text>
        <text class="ex" transform="translate(754.7 283.1) scale(0.96 1)">SEYÐISFJÖRÐUR</text>
        <text class="fx" transform="translate(581.7 181.1) scale(0.96 1)">HVERIR</text>
        <text class="ex" transform="translate(534.1 228.3) scale(0.96 1)">MÝVATN</text>
        <text class="fx" transform="translate(459.2 155.4) scale(0.96 1)">AKUREYRI</text>
        <text class="ex" transform="translate(140.3 441) scale(0.96 1)">REYKJAVÍK</text>
      </g>
    </g>
    <path class="gx" d="M139.7,253.3h-.2l-.6-.4V254l.2.8.4.4h.4l.2-.6.5-.2.3.2.4-.4.6-.6.3-.8h-.4l-.4.3h-.3l-.3-.5v.7l-.3.2h-.3l-.2.4v-.3Zm-1.5,2-.3-.5-.8-.9-.9.8h-.5v1h.4l.3.7h.5l-.2.7h-.7l-.4.3.4.4.9-.3.9-.5v-.6l.2-.4Zm-15.3-30.4.5-.4.2-.5v-.4l-1.1.4-1.1,1,.6-.3h.6ZM767.6,451.5l-1-.2-.7-.4h-.5v-.5l-.4.4h.2v.7h-.2l-.2.2v.4l.5.2.5.8h.3l.5.4.9-.2.3-.7v-.9ZM133.5,247.2l1.6-.2.2-.3-.3-.7v-.4l1.3-.8.5-.5,1-.2v-.5l-.5-.4-3.1,2-1,1.2Zm8.1,18.5,1.3-1.3h.3l.4.4h4.8v-.8l-2-.9-3.5.6-.3-.3-.5-.2v1.1l-.6,1.2ZM560.1,553.4l-.5,1.2.3.5,5.3-5.7.3-.5-1.1.8Zm-4.7,5.4-.7.7.3.5h.7l2.2-2.1-.3-.3Zm-25.8-4.2-.7,2.3.4.4.7-1.7v-1.5Zm23.6,5.8-.8.3-.5.4,3.2-.2-.5-.5Zm-8.1.8v.3l5.6-.3h-5.5Zm5.9,0h0Zm-12.7-1.7-.5,1-3.3.4,7.9.4.2-.3-.6-.7Zm-24.5-2.6.3.4,2.1.8.9-.3-2.2-.4Zm-4.9-.8-4.7.4v.4l6.3.2-.2-.5Zm10.5,2.2.3.3,7.1,1.2-3.6-1.1Zm269-441.1h0Zm-258.2-70,1.7-.8.5-1.8-.5-.6-1.5-2.9-.9.5-.3,3.2ZM468.1,561.8l-1-.4h-.7l-1.4.7-2.7,1.9-.4,1.4,3.5-.6h.9l.6.6v1.1l-.5.8-.7.6h.5l1.5-1.6.7-1.8.2-1.6Zm15.6-417.7-.2,1.5.3,1.2.6.8.9.4,1.1-.5h.1l.3-2.1-.7-2.7-.6-1.1-.5-1.4-1.2-1.9-.6.6.3,2.8ZM268.9,578.3l.5-.8v-.3l-1.9-.2-1.6.6-.5,1.8.2,2.1.3,1.4v1.6l.5.7,1-.9.9-1.5.8-1.8v-1.9Zm562-207.7-1.3-1.3.2-1.4.8-2,.8-3.7.6-3.9.3-2.7-3.6,3.3-2.9,4-.3.6-.7.5-1.7,2.3-.9.4-.2-.4-.3-.8-.5-.9-.7-.5-2.4-.4.8-1.1.7-.6.7-.4h.8l.2-1.1-1.2-1.5-6.1.3.2-1.3,2.6-.6h2.6l3.1-.9.5-.7v-1.5l.4-1.2,1.6-1.8.5-1.3-.7-.7-2.9-.4-5.5.5L805,346.2l-9.2.5-2-2.3,4.7.7,4.6-.4,10.3,1.6,10-1,1.9-.7,3.8-4.6,2-1.2-.6-3.1-1.6-2.4-3.3-3.1-2.2-1-7.7.7-3.7-.8-12.8,2.5-.9-1.9,2.1-.9,6.6-.2,3.5-1.6,1.7-.3,3.9.6,2.6-.6,2-1.8.3-3.1-5.6-3-1.7-2,3.3-1.1,6.8,2.1,2.9-1.5.3-2,.6-1.7.2-1.3-.6-1.3,2.9-1.5.6-.7.3-1.6-.4-3.6v-1.1l1.1-1.5,1.7-1.5,1.4-2.5.6-4-.4-.9-2.2-3.6-.4-.2-1.1.2-.6-.3v-.6l.2-1.1v-1.2l-.3-.8-2.2-1-2.1,1.2-4.4,4.7-1.2-1.5-.5-1-.3-1.5.7-2.1.4-1.6v-1.4l-.5-1.2-1-.5-2.4-.3.2-1.1,1.1-.3.6-1.2.2-1.9-.2-2.3-.7-1.1-1.6-.3-8.6.8-2.1-.8L791,256.4l.6,2.2,1.8,2.7.9,1.9-5.4-5.5-1.9-.8-1.8.9-11.8,12.8-1.9,2.8-1,1.1-3,2.2-.9.3-.9.8-2.3,3.8-1.2,1.2.9-3,1.3-2.6,1.6-2.1,6.9-6.1,2.1-3.7,4.8-4.1,2.6-4.5,2.5-1.4,4.3-.7-1.1-1.9-4.3-4-1.5-1.7-.3-.5-.2-.7-.4-1.7v-1.6l2.2-1.6,4.5-7.3-2-3.1-3.2.3-6.4,2.3L759.4,235l-6.5,2.6-2.9.3-2.4-1.8,1.3-3.1,2.9-3.9,1.8-3.7-4.3,4.2-2.3,1.3-2.3-.2,4.5-3.6,1.9-2.4.4-3.3,2-2,6.4-3.3,6-5.4,1-.7.5-1.3,2.4-4.2.2-.9.3-2v-.9l.5-.8,1.1-.8.4-.8.2-2v-6.5l-.3-.8-1.1-.3-.9-1v-2.3l.2-4.2-.6-3-1.2-2-1.6-1.2h-4l-7.3,4.7-3.6-.3-4.6-3.1-8.6-1.6-1.3-1.5,1-.5,1.7-1.2.8-.6.2-3.6-.8-1.6-4.4-1-1.1-.7-2-2.2,2.1-4,2.3-1.5,4.7.5,1.4-.5,8.4-5.9.9-1.4,1.5-3,.5-2.1-.3-1.1-.2-.9-1.1-3.6-.3-.5v-1.6l-.8-1.1-1.7-1.1,2.3-2.9,2.7-1.7,7.3-.7,6.8-3.7,14.5-4,4.3-3.6-15,.2-1.6-1.1-2.5-2.9-1.8-.9-6.7.2-2.2,1.1-3.5,2.7-1.8,2.1-1,2.8-1.2,2.2-5.9,2.7-.6,1.4-.4,1.7-.6,1.4-5.7,1-9.4-1.4-2.4.9-.8,1.8v2.7l-.4,3.9-.8,3.6-1.1,2.9-1.3,2-1.5.7.2.8v.4l.6.4-2,1.4-1.1-2-1.1-2.8-2.2-2.3-1.9-3-2-1.3-.6-1.2-.2-1.7v-2.1l-.9.7-.5.3H708l-.5-1.5-.3-.9-.8-.4-2.9.8-5.5-1.2-1-1.2,1-2.5.7-2.1v-1.4l-2.3-1.4-.9-1.4-.8-.7-1.1.9-.6-2.8,2.6-1.6,2.2-2.2,4.2-5.5-.7-5.5v-1.1l.5-1.7-.5-1.9-1-1.5-1.3-.7-7.3-1.2.2-.9.6-2.1.4-.8-1.5.4-2.9-1.1-2.9.2-1-.4,1-1.5-.3-.7-.5-1.6-.3-.7,1.9-1.2V86.4l-.2-.2h-.8l.9-2.9,1.2-1,1.3-.6,1.4-1.4-3.4-2.1-5.4-7.6-3.8,1-1,.3-4-2.6-2.1-.3-1.9.6-.8.7-1.1,3.6-1.1.9-.9-.4-.2-2.3v-.5l-1.1,1.1-1.1,1.7-1,1.2-.3,1.4h-.4l-1.6.5h-1.5l-1.2-1.4.6-.2,1.2-1-1.3-.4-.7-1.4-.6-1.7-1-1.1-.7.2-2.5,1.5-1.4.3.2,1.2v2.9l-.7-.8-.4-1.5V72.4l.6-2,.2-1.6-1.2-.3-2.3.7-1.1.7-.8,1.7-.6,1.8-.3.8-.8-.4V71.2l-.3-1.3h-1.7l-1.9,2-1.1,2.6,1.7,2.8.6,6.4,1,2.1-.2,1.3-1.6-.2.3,2.5.3.8.4.7-.4.6-.7,1.3-.3.6h1l-1.1,3.3.2,1.6,1.9,2.1v1.1l-.2,1.7v1.7l.2.7.5.3.4.4.2.7.8,3,.5,1.5.3,1.6-.3,2.9-.4,1.7-.8,1.8-.9,1.4-.5.9v1.2l-1.6,1-1.5,1.8-1.1,2.2-.7,2.9.2,2.2,1.1,2.3,2.2,3.2-.2,1.5-1.9-.6-2.3-5.1-1.5-2-1.7-.4-7.1,1.6,2.6-1.9,7.3-3-1.8-.2-3.5,1.5-5.5.9-3.8,2,1.2,1.7v1.4l-.3,1.9.2,2.6.6,1.4.9,1.7,2.2,2.1V147l-2.5-1-1.3-3.1-1-3.6-1.8-2.5-.9.4-1.2,1.4-2.1,3.6H613l-1-3-.8-.9,1.3-1.1,1.3-.6,1.2-.3,1.3.2-2.8-1.3-10,1.1-3,1.7.9,1.4h.5l-1,1h-1l-.9-.5-.8-1.1.2-1.2h.9l.3-1.6.2-1-1.7-8.6-.9-3.7-1.8-1.7-7.6-2-1.7-2.3-1.3,3.2-5,1.1-2.4,1.8-2,2.5-.6,1.3.8.7.3,1-.5,2.2-.8,2.1-1,1-2.1.4-2.6,1.6-2.3,2.2-1.3,2.4-.5,2.4-.3,2.8-.2,1.1-.7,1.3-.6.9-1.5,1.3v2.5l-.8,1.9-1.1,1.1-1.1.8-.2,1.1.6,1.3v1.3l-.4,1.3-.6,1.3h-.5l-.5-3.6-.2-2.2-.7-1-12.2-1.8,1.6,1.9,7.1.7-1.5,1.1-1.9.6-1.8.2-1.5-.3.3,2.9.6,2.7.2,2.8-.8,3.5-.7-2.6-1.4-8.2-1.3-4.1-1-2.1-2.2-2.2-.5-2.6-.4-5.6-.6-2.3-2.3-5.2-.9-1.1-1.3-1-1.9-3.9-1.1-1.1h-3.2l-.8-.6-.4-1.5v-3.8l-.5-1.6-3-2-7.9.8-2.6-2.1.4-.3h.1v-.3l.2-.6-1.1-.5-3.3-.2-1-.5-1.6-1.9-.9-.8-6.8-1.5-1.2.2-2.9,5.1-1.8,8.8-.4,8.9,1.3,5.6-.2,1.4h-.6L492,142l.7,2,.9,4.1,2,1.7.6,2.1v2.6l-1.1,2.6.6,1.4,1.9,3.5.8.8.4-.3.9-1.7.5-.4.3.3.2.4v.7l.4.7,1,3.6.4.2.6-.2h.5v.7l-.5,2.6v.6l.9,9.3-.2,2.9-1,3.4-.5.5-1.5,1-.6.7-.6,2-.2,1.4v1.1l-.2,1.8-.5,1-.5.8-.4,1.2v2.2l.4.8,1.3,1.5.5.8.4,2.3.2,3.5-.5,3.3-1.3,2.2-1.2-.7-.5-2.7V207l.8-2.4-2.9-4.4-1.7-3.6-.6-.6v-1.3l1.2-7.8v-1.5l-.9-3.6v-2.1l1-5.2V173l-.6-2.4-.3-.7-.7-.3h-1.4l-.6-.4-.2-.5v-.9l-.3-2.6v-2.3l-.3-2-1.5-1.7-.8-3.3-.6-1.4-.7-.8-5.5-1.8-3.1-2.8-5.3-2.3v-1.4l1.1-3.2,2.3-5.4-.4-3.1v-3.9l-.2-3.4-.9-1.6-.9-.8-.8-1.4-.8-1-1.1.7-.9.9-1.2.5h-1.1l-.9-.2,2.9-4.5,1.5-2.8-.6-1.5-1.2-1.4-1.3-2.7-1.4-2.6-2.2-.8-6.4,4.8H457l.7-2.8,1.9-3.9,1-2.6-3.5-2.6-2.1-.7-1.5.8.2.9V103l-2.4,3.8-1.3,1.4-1.6.4,1.6-6-2.2-1.6-7.2,1.5-3.1,2-1,1-.8,2-1.5,4.2-.9,1.2-.2,1.2.3.4.7.9.3.3-.2,1.2h-.4v1.9l.2,1.4.5,1.2.8,1.1-1.4-.6-2.2-3.2-1.4-.9.5-1.7.4-.8-.7-.4h-.7l-.6.4-.7.7-.4,3.2-1.9-.7-3.1-3.4H412.7L408,117l-1.6,1.5-1,1.4-.4.4-.2.7.2,4,.3,2.1.5,1.5.6,1.3-1.5,1.9-1.7,1.3-1.7.7h-1.4l-1,.5-.9,1.5-.6,1.7-.2,1.3,3.7,5.8V146l1.1,6.8.4,4.8-.2,4.5-.9,4.7-1.3,5.3-1.7,5.1-1.1,2.5-.9,1-1.6.8-.7-.2v-1.6l.3-.9.7-.4.8-.3-2.2-.3-.8-.4-.5-.7-.8-1.7-.3-.3-2.2-.7-.9,1.4-1.1,3.9-1.1-2.6-3.9-1.9-1.2-2.5-.2-2.2.4-5.1v-2.3l-.4-1.5-1-4v-4l-.3-1.4-.3-.4h-1l-.4-.6-.8-1.7-.7-.4h-1l-2.7-2.5-4-1.4-1.2-1.5.7-3.4-1.1-2.6-1.6-2.3-1-2.8.3-.5.7-1.3.3-.7-.7-.9-.2-1.2v-1.5l-.2-1.7-2.2-6.7-.6-2.9-.3-3-.4-1.5-.6-.9.8-1.4-1.7-1.3-1.2-1.7-.7-2.5.3-4.1-1.9,1.3-1.7-.5-3.5-2-1.4.6-3.3,3-1.6.6-2.6-.8-1,.2-.9.5-1.6,1.4-.8.2-3.1-.9H333l-1.7,1.1.5,2.6-.8,3-1.5,2.7-1.5,1.6,1.1,1.9.8,2.1.4,2.5V123l-.5,6.5.3,1.8,1.8,7.1,1,6.3v5.5l-2.3,1.6-.3,1.5,1.6,2.2,1.3,3.7.9,4.7-.2,4.9-.7,2.9-.9,2.6-1,1.8-1.1.6-1.3,1-.3,2.7.7,2.4,1.6.6-1.6.2-1.5-.2-.8.6-.5,1.3-.6,2.9-.5,1.3-1.5,2-3,3.3-1.3,2.4.5,2.9-.9,2-1,2.1-.2,3.1-.7-2.9,1.6-8.1-.7-1.9-1.1.2-2.4,1.4-1.1.2-2.4-.2-2.8.6,1,1.4,1.2.5,2.6.2.8.6.7,2.7.9.9-1.5,3.8-.9,2.8-.9,1.9-1.9.8h-1l-1-.4-.8-.6-.8-.8-.7-1.3-.2-1.1v-1.3l-.2-1.5-.4-.6-1.4-1.1h-.3l.2-1.1.4-1.2.6-1.4v-4l-.5-1.2-1.6-1.8-1.2,1.2-.6,3,.4,3.5-1.9.4L299,199l.5-3.1,1.4-3.1-.2-2.8.7-3.7,1.7-7.3.3-.4h.3l.2-.3v-1.6l-.3-.3h-.9l-.3-.2-1.1-2.3-.7-.7h-1l-.6,1.8-1.1.6-1.5.2-1.6.5-5.7,5.6-9.7,5.5-3.1,4.1-.4,1.1-1.7,5.3-.3.8-1.2,1.6-.6.9-.7,2.7-.5,3-.4,4.4-.2,5.6.3,6.1,1,6,1.3,4.6-.8,1.3-.9-1.2-2.4-1.2-.4-1.5-.2-1.3-1.5-4.8-1.1-8.2-1.1-3.5-2.1-1.7-1.3,2.4-.7,5.8-.5,14.2-.4,2.5-.9,2.7-.8,1.1-.9.9-.7,1.1v1.6l-.5.5-1.5,1.8.3,1.8.9,3,.4,1.9v1.4l-.3,3,.4,4.6-.9,2.4-1.4.8-1.1-1.2.2-1.2,1-3.1-.2-3.6-1-3.3-1.2-1.9.2-.5V250h.1l.4-.3-.8-2L250,237.5l.2-1.8,1-3.7.5-2.8v-4.1l.4-2.3.5-1.9v-1.3l-1-.9,1-3-.5-1.9-2.4-3.3-1.5-3.9-1-1.2-1.7-.7-1.7.4-3.4,2.2-8.2,1.7.2-1.2,3.9-.9,5.2-4.1,4.8-5.8,2.7-6.5-.3-8.2-4.2.3-5.4,3.5-4,1.5.2-1.2,1.8-1.5,5-5.6,1.1-1.9-.6-2.6-2.1-1.5-12.8-1.7-1.1-1.5-.3-.5-.8-.9-.6-1.6v-3.6l-.6-1-1-1.5,1.2-1.4.8-1,.4-1.5v-2.3l-.2-.3-1.1-3.3-.2-.5-1-1.4-3.2-3-1.4-.5,2.4-1,2.5.4,2.1,1.6,1.5,3v1.6l.5,2.7,1.1,2.8,1.2,1.2.2.7,1,2.6.5,1,10.3,2.1,2.6-1.4,7.4-6.9-1-1.3-3.6-3.3-1.2-.5h-2.9l-1.7-.4.3-1.3,8.2-1.8,2.5-1.6,1.8-2.3,5.2-8.3.2-1.4-3.2-3.2,2.5-.9,1.3-2.4.3-3.2-.5-4-1.8-2.1-8.6,1.1.2-1.2,3.6-2,1.2-1.4-2-1.7-7.4.2-4.7,1.7h-2.1l-1.1-2.8h1.2l8.4-1.1,2.4-1.4,10.9.8-.3-4.2-1-2.4-1.7-1.4-2.1-.8-8.6,1-1.7-2-1-2.8-.2-1.4.8-1.7.7-.2,1.9-1.1,1.2-1.3-1.5-.8-.2-.7V89.3l-.2-1.5-.5-.8-3.4-.2-2.9.9-1.1.9.9,4V94l-.5,3.2-.6.9-1.2,1-1.3.7h-1.1l.9-1.9,1.3-2,1.1-2.3.2-2.6-.7-1.5H236l-1.5.6h-1.3l-.9-1.1-.3-1.3.2-3.8.4-3h0v-1l-.3-2V77l1.3-.8.3-2.3-.4-2.4-1.2-1.1.6-1.8.4-.6-4.4-3.4H228l-1.6.7h-.8l-.5-.6-.7-1.6-3.1-3.5-1.1-.5-1.3.4-1.2.8-1,.4-1-.8,5.1-3.2,1-1.2-2.3-5.7L219,49l-.6-.7h-.7l-.8,1.1-1.3-.8-5.5-.3.8-2.7-.5-1.4h-1.3l-1.5,2.3-.8,1.2-.7-.6-.4-1.4-.5-1-1.2-.2-1.3.4-1.4.8-1.2,1-.8-1.5.2-1.4,1.4-1.2V41.2l-.4-1.5-.3-1,.4-2,.3-1.6.7-.7,1.4.6.2-1.2-3.1-1.3-.8-1.3,1.3-1.8-1.3-3.8-5.7-4.5-.9-3V13.5l-1.2-4-2-2.8-2.4-.8.3,1.8,1.8,1.7.3,2-.8,2.3-1.2.2-4.8-3.5-2-3.2-2.1-2.5-3.2.6V8l-2.1,1.1L170,12h-2l-1.3-1.3L164.4,7l-3.2-1.9L158.9,2l-1.3-.8L150,0l3.3,4,1,.7,1.1,1.2V7.8l-.9,1.4L153,8.5l-.2-1.1L152.5,5l-.3-.8-.6-.3H143l.5,1.1.2,1V8.4l-2.1-1.6-2-2.6-2.3-1.6-2.6,1.6L136,7.4l1.8,3.1,2.1,2.2,2.1.7-2.5,5.7h-3.4l-3.4-2-3-.3-1.3,1.5.2,1.4,1.1,1.4,1.7,3.1,2.9,2.3,11.5,5.1,2.2-1.9.7-.3,3.9-5,1.6-1.5,1.4-.9,2.8-.7-.2,1.5L156.9,24l-1.6,2.5-.8,2.4.8,1.2h3.1l1.6-.5,7.1-5.7,2.7-1.4,3.5-.2-3.9,1.1-1.2,1-.6,1-1,3.8-.5,1.3-1.8,1.7-.9,1.2-.2,2.1.6.6,3.4,1.3,4.7.2,4.1-1.5,3.5-2.8,1.1-.2,1.5,1.2-.2,1.5-1.2-.2-1.4.5-1.2.9L177,38.4l-1.5,1h-1.2l-.4.2,1.3,1.9,2.9,2.2h10.6l-1.9,1.1-3.9-.2L179,46.7l-2,.2-3.8-.6.4,2.7.2.8.4.7-1.3,1-1-.5-1.7-2.4v-.8l-.2-.9-.3-.8-.8-.6-2.1-.3-7.6-3.9-2.4-.4-11.9,1.3L140.9,44l1.8,8.8,4.5,6.6,17,10.8,3.5,5.2,5.9,4.2,1.4-.3,1.8-1.2,4-1.3h1.6l-1.3,2.5-1.4.5-1.6-.2-1.6.5L175.2,82l-.8,2-.8,2.3-1.1,2.3,1.5.9,1.3,2.2,1,2.8.7,2.7V105l.2,3.7,1.3,2-.2,1.3-2.7,1.6-4.7,10-3.2,1.1.2-1.1,1.1-2,2.4-3.3.9-2,1.5-6.4.2-1.3-.5-.5-.7,1.4-.7,1.9-.3.9-.9-1,.3-1.3.7-1.3.3-1.6-.4-1.6h-.4l-.6.4-.5-.2-.8-2.6-.4-2.9-.8-1.9h-1.7l-.2,1.4-1.1,3.6-7.2,12.8-3,6.9-1,.2-.4-1.7,1.4-3.3,5.6-10.3-.2-.5v-.7l.8-.9.7-1.8.7-2,1-3.9v-.9l-.4-.7-1.9-5.8L159,87.1l-.5-1.1-.2-1.6.2-2.6-.4-.6L153,79.9l-.5.2-.9,1.3-1.2,3.1L149,88.9l-1.1,4.7-.5,4.3-4.1,8.6v-2.8l1.4-4.2,1.3-5.2-.3-5.2-.9.4-1.6,2.7-2.2,4.6-1.5,1.4-1.5.6-3.1-.3,2.7-1.4,2.8-3.2,2.5-4.1,2.1-4.1-1-1.4-1.4.8-1.5,1.6-1.3.9.2-.5.5-.8-.3-4.5-.4-1.6-.7-.7-1,.4-.7,1.2-.6,1.7-.7,1.5-1.9,2.2-5,4.6-2.1,2.4h-.5l1.1-1.8,4.4-6,.3-.3,1.8-2.2.6-1.3.2-1.8V76.8l.5-2.7V73l-1.1-2.3-.7-2.4-.5-1.3-.8-.6-1.7.4-4.7,5.4.2-4.2.8-2.8-.8-3.5L125,58.5,123.6,57l-2.2-.9-6.9-7-11.4-5.3-2,.5-.5,2.5-1.4.9L96,47.4l-1.3.4L93.2,49l-1.3,1.6-1,1.3-.3,1.4,1.6,1.6,7.4,1,1.5,1.3,2.2,5.5,1.6,1.9L99.1,58l-5-1.7L87.4,56l-2.8,1.6,2,4,3.7,4.9L92.1,70l.8.8,1.7.7,3.3,2.3,1.7.7,1.3,1.4,1.5,6.3,1,2.2v1.2l-1.5-.9-1.1-1.9-.5-2.7v-3l-3,1.1-3.9-1.7L80.9,65.9l-3.7-1.5-3.4.6-1.5,2.1L71.4,70l-1,5.8.5,1.7,2.3,4.9,3.1,3.9,1.5.9.8,1.9,1.8,1.6L83.7,97l1.5,1.6,7.6,3.2,3.1,3.8,1.8,1.5,6.2,1.6,1.6,2.8,6,3.1-2.8.9-2.7-1.7-4.9-4.9-3.1-.5L89.2,103l-5.1.7-1.4-.4-1.2-1.4-2-3.4-1.3-1.1-5.4-2.2-3.9-3.3H67.3L63.5,95l-1.2,5.6.6,6.3,1.7,5.5,3.7,5.7.7,2.1.9.9,4.1-.8,2.3,2.9,3.8,2.4,20.5,3.8,3.8-2.5,2.6-.8h4.2l-1.3,1.3-4,1.9-.2,1.2h.6l.5.3.8,1.1-1.8,1.2-1.6-.4-3.1-1.8H99.5l-2.4,1.5H90.8l-1-1.2-1-.7-5,1.5-1,.8.4,2.3,1.1,2.4.8,1.4,2.7,2.4,3.9,2,9.3.7-1.3,1H98.5l-1.2-.4H96l-3.8,1.8H90.8l.3,1.8.4.5.6.5-.2,1.3-2,.3L86,149.2l-1.2,1.6-.9-1.8-.2-1.1-3.9,4L77.9,153l-1.3-1,1.1-2.6,1.1-1.8.7-2.1-.3-3.4-.4-1L77,139.2l-.9-3-.6-1.1L46.1,111.8l-3.2-.7-3.7,2.4.5,2.3-.3,2.3-.4,2.2-.2,2.4,2.1,6.9,2.1,4.3,1.5,1.9,3.3,1.9,3.5,3.3,3.2,1.8,1.9,2,1.7,2.7,1,3.1-2.3-1.1L50,143.9l-11.1-4.2.9,2.8,1.9,3.7,1.5,4,3.1,4.8,1.4,1,.8,2.1.8,2.3,1,1.9,1.3,1,1.7.8,3.7.3L52.3,166H50.1l-2.2-1.6-1-1.9-.8-2.3-1-1.9-5.2-2.3-2.6-2.4-3.4-6.1-1.2-1-2.3-.6-6.7-5.6-1.8-.7-1.2.2-1.6,1.6-2.5,1.2-.9,2.6-.5,3.3-.7,2.8-1.6,1.5-5,2.1-1.1,1.1-1.1,1.8-2,1.5L0,160.7,1.2,164l2.7.9L26,166.1l11,6.7,1.4,3,1.2-2.3h1.8l1.1,1.9-.7,3.3-.5-.9-.6-.4-1.4-.3.8,1.2.6,1.2v1.5l-.7,1.4-.2,1.3,2.9,2.6,3.3,1.1,14.7-1.8,3.7-4.6.7-.4.7-.2.4-.7.4-2.2,2.1,1.7,10.7-.4,4.4-2.7,2.3-.6-.3-.8-.2-.3-.2-.3.9-.6.4-.3h1l.5,1.7.7,1.6,1.1.8,1.2.4,2,1.3,4.9,1.4,1.3-.2,1.3-.9,2.2-2.6,1.1-.9.2-1.4-1-2.6.7-3.9,1.8-3.5,2.3-.9-.2,1.2-.6,2.6,1.8,2.7,3.9,2.7,2.4-.8,4.7-.5,2-1.8.6-1.8,1.3-5.7.4-1.2.6.9.2,1.9v2.3l.2,2.1,1.4,1.3,2.1-1.4,2.1-3.2,1.2-4.1,2.4,2.2,1,1.5.5,2.3-2.2.6-4.2,4.2-2.1,1.5-.3,1.4,1.9.5h.7l-.2,1.7.8.3,2.7-.4.9.5.8.9.2,1.3-.7,1.5-.2,1.1,1.4.4,1.3,1,1.2.4,1.3-.9V168.3l-.4-2.4v-5.1l.5-1,.6-.3,1.2.2,1.8,1.7h.7l.5-.5.4-.2.6,1.2-2.3,3.2-1,2.9-.2,3.1.9,6.1.3,1.5.5.9.9.3,1-.6.8-1.3,1.2-4.8.7.4.9,3.7.8,2h1l1-1.1,2-3.1.6-1.3.3-1.6-.6-4.1.2-2,.4-2v-.9l1.3-1.6.6,2.3.5,6.9.4,3.2-.3,2.4-.7,2.1-.4,3,.3,3.4,1.1.8,4.5-1.1,1.3-1.3.6-1.4-.8-1.6.3-1.5,1.4.4.7,1.2.8,1,1.6-.4,2.5-2.3,1.3-1h1.6l-.2,1.4-1.2,1.2-3.6,1.8-.2,1.2,5.4.5,2.7-.8,2.9-1.8,7-7.3,2.3-.3-1.8,1.1-1.1.8-.8,1.3-.5,1.6-.3,2.2-.5,1.9-1,.7-2,.3-3.9,1.9-8.7.5-1.9,1-2,2.7.2,1.8,2.9,2.1,3.9,4.8,1.5,3.6,1.3.8,2.9.2.8-.7.9-1.6.8-1.7.4-.8h.7l.9-.5,1.6-1.5,1.5-1.9,1-2.2.6-2.5v-3.2l.7,1.6.8,4.7.4,1.7.7.8,1.1.4.8-.7v-2.7l1.1.3h1.1l1.1-.3,1.1-.6v2.8l.7,2.2,2.4,3-2,2-2,2.6,1.5.5,4.7-.8,5.3,2.1,2.7.5,7.6-1.4-5.2,2.2-10.3,1.6-5.2,2,.3.9.2,2.9-1.2-.3-1.5-2.4-1.2-.3v.9h.4v.2l-2,1.6-5.3,1.9-3.4,3-8,4.4-9,1.1-2.2,1.3-3,4-.8.6-2.7-.9-1.3.3-.3,3.1-1.5,1.3-3.9,1.1-3.1,3-1.7,2.4-1.2,2.6,3.8-.9,1.9.5,1.6,1.5-.3,1.5-1.4-.3-.5-.5-.5-1-1.9,1.3-2.3.3-1.3.6,1.2,1.9,1.8,1.3h7.2l1.2-.6.4-.2.8.6,4.8,5.3,21,7.8,4.1-1,13.1-8.1.2-1.3h-.6l.2-1.3,2.8-2.1,3.4.3,2,2.8-1.3,6.2-4.6,8.8-1.3,2-1.6,1.1-1.3.3-1,.6-1.1,2.3,2.2.8,1.2,2-.5,2.2-2.3,1.4h-8.6l-1.8-1.6-1.7,1.1-1.5-.8-1.5-1.5-1.4-1-5.8-.9-.8.4-1.4,1.4-.8.4-6.3-4.6-10-3.8-6.6.4-6.3-1.3-1.5.6-.5,2.4-1.6-.3-1.3.7-2.5,2.5,1.4,3.6.7,1.3.8.7-.2,1.1-1.1-.7-2.9-3.8-2.4-1.6-.4-1.5v-3.5l-1.3.7-1.4.4h-1.3l-.9-.4,1.1-1.1,2.5-.8,1.2-1.4v-1l.4-1.4-1.1-1.1-1.3-.6.6-.4.6-.8-3.1.3-6.7,5.1-3.4.2-.2,1.5h5.7l1,1-5,2.5-4.8.4-1.8.9L107,275l-1.2-3.4-1.8-2.1h-2.2l-2.6,2.5-.5,1-.9,2.3-.6.9-.7.3H95l-.5.3-1.1,1.7-.6,1.9-.3,2.2v2.8l-3.2-6.9L90,277l.8-1.1.8-.5h.9v-2.6l2.4-1.3,1.2-1.3.8-1.9-6.1-2H87.4L84.8,269l-.6,2.4v2.7l.2,2.4v2l-.8,1.7-1.4,1.5-1.5.4-1-1.3-1.7,1.6-.2-1.4.4-2.5v-1.8l-.9-.2-.7,1.1-.9.9-.8-.9.9-3-.9-1.1-3.2-.3.2.8v1.2l.3.7-.2,1.2-6.6-2.3-3.4.6-3.5,4-.8.7-3.2-.7-.9.7-1.7,2.1-.8.4-8.2-2.9-5.6-5-1.6-.5-8.6,1-1.6.7-3.3,3-1.6.4-1.3-1.9-.7,1.3.9,8,.8,3.3.9,3,2.4,5.8.2,1.7-.2,3,.7,1,1,.7.9,1.9,5,4h1.6l3.6-1.4h1.8l5.6.7,2.4-1.4,2.1-4,.9-3.5,2.8-2.6,3.2-1.2,1.1.7h-1l-.9.4-1,.6,8.5,4.2h1l.8-.4,1-.6.6-.7,1.8-2.1v-.6l7.7-.5,4.2.9L83,305l10.5,2.5,9,1.4,9.5,2.4h-.5l2.1.7,3.1,3.8,2,.5.2-1.3-3.7-3.1-.9-1.5,8.1,1.3.5.6.8,1.5.5,1.6.2,1.2-.7.6h-1l-1.8-.6,1.6,1.7,7.2-.3-1.3-1.3-.6-.2.2-1.4,1.4-.3,2.7-2.2,1.2-.4,4,2,.2-1.2.9-.9h.8l.5.6.2,1.8.9-1.5.7-1.1.8-.5h.9l-1,2-2,3.4-.9,1.7,1.6.2-1.5,2.3,5,.4,2.2,1.1,1.3,2.4-1.3,1.4-.4.5h-.7l.3,1.4-1,1.7-1.1,1.1-1.8,1.4-2.6,2.7-1,.5,1.1,1.9,2.5-1.2,2.7-2.1,2.3-1h2.6l2.7-1,5.4-3.3-.2,1.1-2.7,2.5-9.5,3.1-.2,1.2.2.3.7,1.1-1.1.5-1.1.8-1,1.2-.8,1.9,1.6.3-2.1,1.2-1.9-1.5-1.7-2.4-1.7-1.2.6,1.7.7,1.8.9,1.5.9.7.3.7.5,1.6.8,1.5,1.2.4-.2,1.2-1.4,1.7-.7,2.7v3l1,2.4,1.8.4,2.2-.7,3.9-2.1-.2,1.1-1,1.7-.4.6h.7l.7.3.5.5.5.7-.9.9-.3.2.5,2.2-.8,2.6-1.4,2.7-1.4,2,.9-.2.6-.3.7-.5.8-.9.2,2.9.8,2.5,1.1,1.7,1.2.8h.6l.8-.3.8-.4.4-.7.4-.6,2.8.5.9-1,.2-1,.2-1.3.6-1.6,2.3-3,.4-.8.5-2.7.7-2.7,1.1-1.9,1.6-.2-1.9,3.7-.3,1.7.5,1.9,1.1.7,1.4-.6,2.2-1.9,5-3.2,2.2-.2,2.2,1.1v-2.4l1.4-.9,4.2-.9,3.6-2.6.9-.4,1.1-.8,1.1-4,.8-.9,1-.3,3.7-2.9-.8,1.7-.9,1.2-2.4,1.6-.2,1.3h2l5.6-3.9,2,.2,5.6,2.3-.2,1.3-5.9-1.9h-1.3l-1.7,1.3-4.7,2.1-.2,1.3,7.9,1.3v1l-3.4.9,1.2,1.1,1.3,3,.8,1.4,1.3.6h2.8l1.1,1.3-6.3-1.4-.8-1.5-.6-2-2-.4-1.5-.7.8-3.2-3.1-.7h-1l-.9.5-1.5,1.3-2.8.8-3.5,3.5-1.6,1.2-.2,1.1h1.1l.9.4.5,1.1v1.6l-4.6-.3-9.4,3.1-2.2,1.5-.4,1.9-1.3,2.3-.6,1.4-.9,3h-.5l-.5-.6h-.5l-1,2.6-.4,2.5-.5,2.1-1.3,1.5.9,3.2,1,1.1,1.3-.2,1.6-.8,2.2-.5,6.7,1.9-1.6.7-3.5.6-1.7,1.3-1.5-1.4-1.8.8-3.1,3.3-3.5,2.4-3.4,1.4-.3,1.4,6.4,3.6,3.6,1.1,3.3-2.2,1.3-1.1,3.8-2,1.4-.3h.6l1.5-.2.8-.4.8-.8.6-1,.3-1,.4-.7,6.6-4.4,6.8-.5,13.8,3.1H204v.2h.3v.8l-1.4.8h-1.4l-.2,1.1,1.7,1.1,3.8-1.3-2.7,3.2h-1.9L192.1,400h-1.9l-1.7.5-3.5,2.1h.7l.5.8,1.5.9-1.5-.2-3.3-1h-1.7l-1.5.6-.9.9-2,3.4-2.1,2.8-2.7,2.2-5.2,2.6v2.7l-1,1.3-2.5,1.6,2.8,1.1.7-.8.8-.4h.8l2.1.2,1.5.6.6,1.5-.9,2.9,1.8-.6h2.3l2.3.6,1.4,1.3-2.6.8-1.5.9-.8,2,.5,1.4h1.5l2.9-1.1-2.2,3.2-2.6-.3-2.5-1.3-2.2.4,1.4,1.4-.8.4-.6.5-1.1,1.2.8,1,.7.5.8.2h.9l-1.4,1.1h-1.2l-2.2-1.8-.4-.6-.3-.9-.4-.7-11.2-4-2.6,1.5,2.5.6,2.4,1.8,4,5.1h-.5l-1.2.8,1.4.3-.2,1.3-1.3.5h-1.6l-1.5-.4-1.2-1,1.7-1h.6l-1.3-1h-2.2l-2.1,1.1-1.2,2.7,1.4-.6,2,.8,1.6,1.6,1.1,1.6v1.1l-.6.6-.6.4-.4-.3-.5-1.1-2.3,2.7-2.4,1.1-6.5.3-4.3,2.6-2.1.5-1-.6-1.8-2-.9-.6-.9.2-3.1,1.8h-3.7l-1.3.3-1.1.8-1.2,1-.7,1.4.5,1.5-1.3,1-1.9.2-7.5-1.5-1.7-.9-.9-2.1,1.1.2-.3-4.7-1.3-4.6-1.6-3.5-2.4-2.2L102,438l-1-.5-1,.5-1,1.1-.7,1.4v1.3l-.3,1.7-.5,3.6-.4,2-.5,1.4-1.7,3.2v3.4l1,2.4,1.4,1.5,1.4.6,1.9-1,.8.2v1.8l-.6.5-3.4-.5-.8,1.2-2.6,6.1-1.4,1.6.6,1.6.7.7.5,1v2l-.4,1.9-.7,1.1-.7,1-.8,1.8.8.6.8,2.5.9.6.6-.2.6-.6.5-.7.4-.4,1.9-.4,7.2,2h.9l1-.4,1.6-1.2,2.6-.4,3.2-1.4,1.7.3-1.3.9,1.5,1.5,1.7-1.3,1.8-1.9,1.8-.9,19.9,7.9,4.1-.7,1.1.3,3.2.3,13.4-2.6,2.4.8,2.1,2.1,2.2,3,2.4,2.3,22.9.5.3-.3.3-.4.2-.2h.4l-.5-3.1,1.5-1.6,2.2-.7,3.6.2,3.4,1,1.5,1.2-.6-2.8-1.7-1.9-3.6-2.4.2-1,1-.5,2.8-2.2.9-.9.9-.7,4-.4,1.3.5,3.3,2.7,5.7.9-2.5,1.7-3.4.2-5.9-1.3.2,4.1V489l-.7,1.3,1.1,2.9,1.6,1.9,1.7,1.2,2.9,2.9,9.3,5.2,6.1,5.7,2.6,3.8-.2-.7-.4-3.1,1.9,1.6H239l2.1-1.2,3.5-3.4,1.8-2.5.7-2.4-2-1.2.2-1.1,2.7,1.6.4,4.6-1.6,5.1-3.2,3.1-.2,1,1.9.6,5.7-.6v1.1h-1.2l-.2,1.3,2.1.3v1.2l-2.5-.5h-1.1l-.4.9-1.1-.3-1.5-2.1-.9-.6-5-.8,4.7,5.1,2.4,1.5,2.9,3.6,3.1,2.5.6-.3.8-1.5.5-1.7.2-2.1.3-1.6.7-.6,1.9-.2,1.8-1.3,2.5-2.2,4.1-3.9,1.1-1.5.2-1v-1.4l.8-.6.7.8v2.5l-.6,1.5-3,4,5.3,4.4.9,1.3,1.3,3.5,1,1.9-2.5-.7-3.5-5.2-2.2-1.5h-5.3l-2.6,1.1-2.5,2.1.5,3.1.4.8-.9.9-.3.2.8,4.3,1.8,3.4L261,542l-.5-3-1.1-3-2.1-4.3v-1.1l2,.2.7,1.1.3,2.3.8,3,1.1,1.9,1.3,1.5,1.2,1.7.7,2.8-2.4-1.5-.2,1.1,1.5,1.5,1.3.6,1.4-.6,1.8-1.8-.4.7-.8,2.6,1,.4,1.6,1,.9.4-1.3.9h-1.3l-1.2-.6-.9-1.1.9,1.6,10.1,11.7,2.7,1.1,5.9.8v-2.3l.4.2.2.2.3.9.3-.4.3-.2.2-.3h.3l1,2.3,20,4.5-7.4-2.8v-.9l7.1,2.4h1l1.4-.9,1,.3.8.9v.9l-.7.5H311l2,2.6,11.8,5.3,8,7.4,6,2.3,3.6,3.7.8.6,10,3.9,1.9-2,.9,1.2,1.3,1,2.7,1.1-.5.7-.4.2h-.9l2.1,1.1,6.5-.8,13.8,6.8,3.9.9,16.8-1.9,10.3-3.2h16.8l-1.2-.5-1.9-.3-3.1-.7v-6l-.6-1.1-.3-.7-1.2-3.2-.6-1.1.3-.6.3-.3.6-.2-.3-1.3,1.5.6,4.6,4.1,2.1.4,4.3-.6,2.2.4-.2,1.2-2.4-.2-1.1.7-1.3,1.7-1.1.8-2.2.4-1.1,1.1,1.9,3.9,5-.4,5.6-3.1,8.3-2.4,4.2-3.2,3.5-4.9,2.9-5.5-1.2.8-5.8-.6.5-1.9v-1.2l-.6-.5h-.9l1.3-.8,2.1.6v-1.7l3.1.5-.2.6h-.1l-.4.3,1.9,1.5,2.2-1.4,4.3-5.9-2.2.4-5.9-1.7-1.3.2-1.7,1.4-1.1.2-1.1-.6-.2-1.3.6-1.5,1.2-1.3,1.2,1.8,1.4-.4,1.4-2,.9-3,.8-1.8,1.4-1.8,1.6-.7,1.2.9.9-.9.9-.2,1.9.3.2-1.1-1.3-1.4,2.1.4,1.7,1.2,1.8.6,2.1-1v-2.5l.8-2.2,1.6,2.3,4.6,3.5v1.2h-2.3l-2.6.6-2.4,1.8-1.4,3.6,11.2-5.6.2-1.2-.2-.6v-1.8l.9,1.4,1.2-.4,1.1-1.5.9-2.3.2,1.8-.3,1.9-.7,1.4-1,1.1,7.3-.6,11.1-1.9,10.3-4.4-.2,3,.8.2,1.2-1.1,1.2-.6,2.5,2.6,1.1.6,5.4,1,2.9-.2,1.7-1.7-1-1.5-.2-1.9v-2.1l-.6-1.9,1.1-2.1h1.3l1.3.2,1.5-.9-.5-1.7.2-1.8.9-4.5.6-.9.7.9.6,1.5.2.7v1.1l-.5,2.5-1.2,4.5h.2l.2.9-.2.9-.7.4-.3.2-.3.7-.6,1.5.3,1.5-.4,1.7-1.5,3.8h1.6l1.4-.6.5-1.1-.8-1.7.7-1.9.5-2.1.7-4.7.5-1.1.4,1.3.2,2.1v1.6l-1.1,4.3v1.6l1,.7.6-1,.4-2.2.2-3.3.4-2.6.5-1.5.6-.4,1.2.7.6.9,2.3,4.4,1.1,1.5v.6l-.3,2.4v1.1l.3.7.9-.7.8-1.9.3-2.4v-1.9h1.3l1.6-.6-.8-.2-.5-.6-.6-.9-.4-1.1,1.1,1.6,1.5.7,10.7-1.3,13.1-7.8-.8,2-1,1.2-1.1.7-1.1.4,2.5-.9,4.6-5.1,6.2-4,1.3-1.3,2.7-3.7-1,.9-1,.8-1.3-.3,1.6-2.7,2.4-2.3,4.7-2.5-.9,2.4,1.7-.2,5.1-2.4.2-1.1-1.1-.2.2-1.1,1.1-1.1.8-.6.8.4.5,1.9.8-1.4.9-.7,2.1-1.3,3-2.7.9-.4,1.7-.3,5.6-3.5v-1l-3.6-.6,3.2-2,20.7-3,2.9-1.7-1.3-1.3-6.7,1.2,7.7-4.4,2.5-2.6v.9l.4.8.2,1,2.3-1.3,4.9-1,4.4.3,5.1-1.1,2.2-1.3-2.5-.4-1.1-.6-.9-1.1,2-1,4,1.8,2.1-.6,1.5-2.3,1.2-3v-2.7l-1.3-1.7.2-1.4.5,1.1.7.4.7-.2.8-.8-.4-1.7-.8-4.5-.5-2.2-1.4-1-2.4-1.6-1.2-1.2,1.8.8,2.8,1.8,1.2,1.9,1.4,1.8,1.4,3.7.6,3.9-1.2,2.4v1l.9,1,2.1,1.2.9,1V488l-.3-.9-.6-1,.2-1.2,1-.7,1,.8.5,1.9v2.8l.3,1.3,1.1.3,2.6-.3-.2,1.1-2.3,4.6,2,.4h.9l1-.8-.8-1.5,1.2-1,.8.4.7.8,1,.3.8-.5,1.9-2.1.8-.5,1.5.9,1.2,1.5,1.9,3.4,1.2,1.6,1.5.9,3.5.9,1.5-.5,2.7-2.6,1.7.2-.3-2.4v-2.5l-.7.6-.9.3h-1.6l-.7-.7-.4-1.3V491l.5-.8,1-.2,1.5-.9,1.4-1.3.7-1.7h.6l-.2,1.2-.5.7-.4.9-.7,1.9,1.2-1.9,1.9-1.9,2-1.6,4.7-2,1-.8,2-2.8.5-.5,1-.2,1.9-1.4.6-.3.4-.4.2-2.3.2-.8.6-.2,8.4,2.7,1.7,1.7-3.7.9-7.2.8-3.7,2.1,2.1-.6,5.8-1,8.1.4.4-.6,1.3-2.6.3-.7.3-1.1.4-.4.5-.2.4-.6.2-.6v-3.1l.7-1.6,3.2-4,.5-1.3.8-3.6.5-1.7,1.3-1.9,8.4-7.4,1.4-1.9-.3-.9L750,448l-5.8,6.3-3.3.4-.5,1.3-1.5-.3-1.5-1.4-.5-1.9-.8-.2-1.2-2.2-.6-2.6,1.2-1,10.2,1.6,1.6-.8,1.1-1.2.3-1.6-.4-2.2-1.2-1.9-2.8-2.1-1-1.8,4.4-2.4,12.1,6.3-.3-1.3,1.1-1.8-1.2-1.8-3.6-1.9-.8-1.2-1.1-2.7-.6-3,.5-2.2.2-1.2-1.3-.4-3.5-2.8-1-1.7.4-1.2.9-1.9.4-1.8-.9-1.1-1.9-.2-.8-.5-.6-1.2,5.9,2.2,1,1.2,1.3,4.4,1.6,2.4,1.1,7.3.9,1.4,1.4,1.2,2.5,1.3,17.6-.9,4-2.7,1.3-.2-.8-2.6-.9-2.2-1.8-3.4.2-1.3,1.7-.7.7-.5.6-.8,2.3,1.3,8.7,1.8,2.2-.4.2-2-1.1-1.5-7.7-4.7,2.6-1.6,7.5,4.3,1-.4,2.3-2.2,1.4-.3.9-.5v-1.6l-.5-1.8-.4-1.1-4.3-4.9-10.5-4.4-4-3.9,1.4-.5,4.3,2.7h7.8l6.2,4.3,3.7,1.2,3.7-2.2-1.1-2.8-7.3-4.9-3.1-3.8-.5-1.1v-1.9l-.7-1.9-.8-1.5-.7-.8-23.7-6.1.2-1.3,15.6,1.9,3.3-2.8-.8-.6-.8-1.1-.5-1.6-.2-2.1,2.2,1.4,3.5,4.9,3.9,1.9,2.2,2.2,1.1.6,1.1,1.2.5,2.3v2.6l.6,1.8,1.4,1.1H812l5.2,2.3,1.3-.5,2.8-2.2,1.3-.4.3-.7-.4-2-1-2.6,1.8-1,3.4-.4,1.7-1.2,1.8-2.3.8-2.1ZM530.8,120.9l.2-.6-.2-.5.2.3.3-.2.6.2.4-2.1-.9-.4-2.1.2-.9.4-.2,1.7,1.3.2ZM105.4,185.2h.3v-.4h-.5l-.3.4-.7.7v.5l.9-1Zm79.7,14.2.5-.5.4-.6v-.4h-.4l-.7.4-.6,1h.7Zm-41.2-3.3.7-1.5-1.2.6-.4-.2-.2.2-.7.7.3.6Zm-14.9,9h-.3l-1.2.5-.2,1.6.8-.8.5-.4Zm-8.4-.8-.8.3-.3.8.8-.3.8-.8Zm8.7,48.9.2-.6h-.3l-.5.2-.4-.4v.9l.5.2Zm9.7,72.3.9,1.8,1,.9.8.3h.5l.2-1.3h-.3l-1.3.3-1-1.7-1.2-2.4-1.4-3v2l.6,1.1Zm-1.2,41.3,1.1-1.2,1.2-.2.7-1.2h-.3l-.2-.4V363l-1.2-.2-.9.8-.6.8v.3h.2l-.2,1.4Zm28.8,67.8.5.5.6.9.8-.4-.6-1.1-.7-.9v-.8l-.7-.8-.8.6.5.6.4.6Zm72,162.3-.7,1-.4.6.3.6.8.4h.2l.6-.6.2-2ZM132.5,248.3h-.4l-.2.4-.3.2-.5-.2.4,1.4h.5l.2-.3.7-.4.5-.3h.1l.2-1-1.1-.2Z"/>
  </g>
</svg>
