<svg xmlns="http://www.w3.org/2000/svg" viewBox="0 0 276.5 144.2">
  <defs>
    <style>
      .a {
        fill: #4a668c;
      }

      .b {
        fill: #41ca75;
      }
    </style>
  </defs>
  <g>
    <path class="a" d="M212.4,96.8c4.1,0,10.4-2.4,11.1-2.7l-1.8-4.6c-2.5.9-7.2,2.4-9.5,2.3a16.8,16.8,0,0,1-13.4-6.2l-3.9,3.1c6.2,7.6,13.8,7.9,17.1,8.1Z"/>
    <path class="a" d="M139,107.7c2-1.7,6-4.8,8.1-5.4s8.4-2.6,14.8,1.2l2.6-4.2c-8.3-5-15.7-2.7-18.8-1.8s-9.3,6-9.9,6.5Z"/>
    <g>
      <path class="b" d="M205.5,112.5a54.9,54.9,0,0,0,8.7-.7l5.3-.8-.7-4.9-5.4.8c-.4.1-23.9,4.4-32.8-10.8C169.5,77,148.8,80.2,142.9,83.4l2.4,4.4c2.9-1.6,21-6.4,31,10.8,4.5,7.6,12.5,12.3,23.2,13.6Z"/>
      <path class="b" d="M207,74.3a46.6,46.6,0,0,1-7.6-4.5l-4.5-3,2.8-4.1,4.6,3.1c.2.2,19.7,14.2,34.2,4.2,18.2-12.4,35.6-.7,39.5,4.8l-4,2.9c-2-2.7-16.3-14.8-32.7-3.6-7.3,5-16.5,5.9-26.8,2.4Z"/>
      <path class="b" d="M212.9,111.5a30.6,30.6,0,0,0,8.2-.9l-1.3-4.7c-.9.2-22.8,5.8-33.5-16.4C173.8,63.5,148.2,70.9,148,71l1.4,4.7c.9-.2,21.8-6.2,32.5,16C190,108.5,204,111.5,212.9,111.5Z"/>
      <path class="b" d="M133.8,77.6a43.7,43.7,0,0,0,8.7-.7l5.3-.8-.7-4.9-5.4.8c-.3.1-23.9,4.5-32.8-10.8C97.8,42.1,77.1,45.3,71.2,48.6l2.4,4.3c2.9-1.6,21-6.4,31,10.8,4.5,7.7,12.5,12.4,23.2,13.6A42.3,42.3,0,0,0,133.8,77.6Z"/>
      <path class="a" d="M131.9,92a58.8,58.8,0,0,0,8.4-2.4l5.1-1.9-1.7-4.6-5.1,1.8c-.4.2-22.6,9-34.3-4.2-14.6-16.5-34.3-9.4-39.4-5L68,79.5c2.6-2.2,19.4-10.4,32.6,4.5,5.8,6.6,14.6,9.7,25.4,8.8Z"/>
      <path class="a" d="M141.2,76.7a36.4,36.4,0,0,0,8.2-.9L148.1,71c-.9.2-22.8,5.9-33.5-16.4C102.1,28.6,76.5,36,76.3,36.1l1.4,4.8c.9-.3,21.9-6.3,32.5,15.9C118.3,73.7,132.3,76.7,141.2,76.7Z"/>
    </g>
    <g>
      <path class="b" d="M63.1,42.6a40.9,40.9,0,0,0,8.8-.8l5.3-.8-.7-4.9-5.4.9c-.4,0-23.9,4.4-32.8-10.9C27.2,7.1,6.5,10.2.6,13.5L3,17.8c2.9-1.6,21-6.4,31,10.8C38.5,36.3,46.5,41,57.2,42.2A41.8,41.8,0,0,0,63.1,42.6Z"/>
      <path class="b" d="M70.6,41.6a36.4,36.4,0,0,0,8.2-.9l-1.3-4.8c-.9.2-22.8,5.9-33.5-16.3C31.5-6.5,5.9,1,5.7,1L7.1,5.8C8,5.5,28.9-.4,39.6,21.7,47.7,38.6,61.7,41.6,70.6,41.6Z"/>
      <path class="b" d="M4.8,1.3,0,2V7H.2l5.3-.8Z"/>
      <polygon class="b" points="0 18.9 3.1 17.8 1.4 13.1 0 13.6 0 18.9"/>
      <path class="b" d="M0,6.7a33.6,33.6,0,0,0,7.1-.9L5.8,1A23.9,23.9,0,0,1,0,1.8Z"/>
    </g>
    <g>
      <path class="b" d="M70.4,49l-4.9,2.3c-.3.1-21.8,10.8-34.5-1.5C20.3,39.6,8.2,40.1,0,43v5.4c6.4-2.8,17.4-4.7,27.5,5,6.4,6.2,15.4,8.5,26.1,6.7a45.2,45.2,0,0,0,5.8-1.3,52.1,52.1,0,0,0,8.2-3.1l4.9-2.2Z"/>
      <path class="a" d="M71.4,48.5c-.9.5-20.4,11.9-36.7-6.6C22.2,27.8,8.3,29,0,31.5v5.2c6.6-2.5,19.4-4.6,31,8.5S57.7,58.3,66.3,55.8a31.5,31.5,0,0,0,7.6-3.1Z"/>
    </g>
    <g>
      <path class="b" d="M137.2,138.9a56,56,0,0,0,8.3-3.1l4.9-2.3-2.1-4.5-5,2.3c-.3.1-21.8,10.8-34.5-1.4-15.9-15.3-34.9-6.6-39.7-1.8l3.5,3.5c2.3-2.3,18.4-12,32.8,1.9,6.4,6.1,15.4,8.4,26,6.7C133.5,139.8,135.5,139.4,137.2,138.9Z"/>
      <path class="b" d="M144.1,135.9a36.4,36.4,0,0,0,7.7-3.2l-2.6-4.2c-.8.5-20.3,11.9-36.6-6.5-19.2-21.6-41.8-7.4-42-7.3l2.7,4.2c.8-.5,19.3-12,35.5,6.4C121.3,139.3,135.5,138.3,144.1,135.9Z"/>
      <path class="b" d="M69.8,115.2l-5,2.3c-.3.1-21.7,10.8-34.5-1.5C20,106,8.2,106.3,0,109v5.3c6.5-2.6,17.1-4.1,26.9,5.3,6.4,6.1,15.4,8.5,26.1,6.7a49.3,49.3,0,0,0,5.8-1.3,52.1,52.1,0,0,0,8.2-3.1l4.9-2.2Z"/>
      <path class="a" d="M69.8,127.5l-4.4,3.2c-.3.2-19.3,14.9-34.2,5.3-12.1-7.8-23.7-5.1-31.2-.8v5.9c5.6-4.1,16.3-8.7,28.6-.9,7.4,4.8,16.7,5.3,26.8,1.5a56.7,56.7,0,0,0,5.5-2.4,52.3,52.3,0,0,0,7.4-4.6l4.4-3.2Z"/>
      <path class="b" d="M70.7,114.7c-.8.5-20.3,11.9-36.6-6.6C21.9,94.4,8.3,95.1,0,97.5v5.1c6.8-2.3,19.1-3.9,30.4,8.8S57.1,124.5,65.6,122a31.2,31.2,0,0,0,7.7-3.1Z"/>
    </g>
    <g>
      <path class="b" d="M64.2,76.1l-4.6,3.1c-.3.2-19.9,14-34.3,3.8C16.2,76.5,7.2,76.3,0,78.4v5.2c6-2.2,14-2.5,22.5,3.4s16.4,6.1,26.7,2.7c2-.6,3.9-1.4,5.6-2.1a49.6,49.6,0,0,0,7.6-4.3l4.5-3Z"/>
      <path class="b" d="M65,75.5c-.7.6-18.3,14.9-37.2-.9C17.5,66.1,7.6,65.2,0,66.8v5c6.6-1.6,15.3-1.1,24.6,6.6C39,90.4,53,87.3,61.1,83.6a31.5,31.5,0,0,0,7.1-4.3Z"/>
    </g>
  </g>
</svg>
