<svg xmlns="http://www.w3.org/2000/svg" viewBox="0 0 88.5 64.7">
  <defs>
    <style>
      .a {
        fill: #2f3e49;
      }

      .b {
        fill: #b2bdc6;
      }
    </style>
  </defs>
  <g>
    <g>
      <polygon class="a" points="86 47.7 2.5 47.7 2.5 27.1 6 11.6 72 11.6 86 27.1 86 47.7"/>
      <path class="b" d="M88.5,50.2H0V26.8L4,9.2H73.1L88.5,26.1ZM5,45.2H83.5V28L70.9,14.1H8L5,27.4Z"/>
    </g>
    <g>
      <polygon class="b" points="59.3 29.6 2.5 29.6 2.5 24.6 54.4 24.6 54.4 14.1 32.6 14.1 32.6 9.2 59.3 9.2 59.3 29.6"/>
      <polygon class="b" points="86 29.6 54.4 29.6 54.4 12.3 59.3 12.3 59.3 24.6 86 24.6 86 29.6"/>
      <rect class="b" x="10.5" width="51.4" height="4.96"/>
    </g>
    <path class="b" d="M88.5,50.2H0V26.8L4,9.2H73.1L88.5,26.1ZM5,45.2H83.5V28L70.9,14.1H8L5,27.4Z"/>
    <path class="b" d="M68.2,64.7A8.7,8.7,0,1,1,76.9,56,8.7,8.7,0,0,1,68.2,64.7Zm0-12.5A3.8,3.8,0,0,0,64.4,56a3.8,3.8,0,0,0,7.5,0A3.8,3.8,0,0,0,68.2,52.2Z"/>
    <path class="b" d="M18.9,64.7A8.7,8.7,0,1,1,27.6,56,8.7,8.7,0,0,1,18.9,64.7Zm0-12.5A3.8,3.8,0,0,0,15.1,56a3.7,3.7,0,0,0,3.8,3.7A3.6,3.6,0,0,0,22.6,56,3.7,3.7,0,0,0,18.9,52.2Z"/>
  </g>
</svg>
