<svg xmlns="http://www.w3.org/2000/svg" viewBox="0 0 50 50">
  <defs>
    <style>
      .a {
        fill: #2f3e49;
      }

      .b {
        fill: #f96400;
      }
    </style>
  </defs>
  <title>extra_1</title>
  <path class="a" d="M50,25A25,25,0,1,1,25,0,25,25,0,0,1,50,25"/>
  <path class="b" d="M41.6,30.6H33.7A7.5,7.5,0,0,1,28,27.3c-1.7-2.5-1.6-5.9.2-10.1L30,18c-1.5,3.5-1.6,6.3-.3,8.2a5.6,5.6,0,0,0,4,2.4h7.9Z"/>
  <path class="b" d="M15.7,30.6H7v-2h6.7A13.2,13.2,0,0,1,18.6,20c4.8-4,10.6-3.6,14.6-3l-.3,2c-3.6-.6-8.8-1-13,2.5s-4.2,8-4.2,8Z"/>
</svg>
