<svg xmlns="http://www.w3.org/2000/svg" viewBox="0 0 50 50">
  <defs>
    <style>
      .a {
        fill: #2f3e49;
      }

      .b {
        fill: #f96400;
      }
    </style>
  </defs>
  <title>extra_4</title>
  <g>
    <path class="a" d="M50,25A25,25,0,1,1,25,0,25,25,0,0,1,50,25"/>
    <polygon class="b" points="41 27.5 18 27.5 8.9 18.4 10.3 17 18.9 25.5 41 25.5 41 27.5"/>
    <rect class="b" x="12.6" y="29.3" width="7.5" height="2" transform="translate(-18 33.1) rotate(-66.3)"/>
    <rect class="b" x="33.7" y="26.3" width="2" height="7.24" transform="translate(-7.7 12.5) rotate(-18.4)"/>
    <rect class="b" x="20" y="9.9" width="4.4" height="2" transform="translate(-2.1 15.3) rotate(-36.4)"/>
    <rect class="b" x="24.9" y="13.8" width="4.4" height="2" transform="translate(2.7 33.7) rotate(-66.4)"/>
    <rect class="b" x="32.2" y="13.5" width="2" height="4.43" transform="translate(-1.6 3.8) rotate(-6.4)"/>
  </g>
</svg>
