<svg xmlns="http://www.w3.org/2000/svg" viewBox="0 0 50 50">
  <defs>
    <style>
      .a {
        fill: #2f3e49;
      }

      .b {
        fill: #f96400;
      }
    </style>
  </defs>
  <title>extra_2</title>
  <path class="a" d="M50,25A25,25,0,1,1,25,0,25,25,0,0,1,50,25"/>
  <path class="b" d="M21.1,39.8l-.6-1.1c-2-3.4-3-11.9-3-18A17.2,17.2,0,0,1,22.7,8l.6-.6L24,8a17.2,17.2,0,0,1,5.2,12.7c0,6.1-1.1,14.6-3,18l-.6,1.1-2.3-1.9Zm2.2-4.5,1.6,1.3C26.4,33,27.2,26,27.2,20.7a15.3,15.3,0,0,0-3.9-10.5,15.9,15.9,0,0,0-3.8,10.5c0,5.3.8,12.3,2.2,15.9Z"/>
</svg>
